<svg width="46" height="24" viewBox="0 0 46 24" fill="none" xmlns="http://www.w3.org/2000/svg">
<path d="M1.27841 18V6.36364H3.03409V11.4205H8.83523V6.36364H10.5966V18H8.83523V12.9261H3.03409V18H1.27841ZM16.6932 18.1761C15.875 18.1761 15.161 17.9886 14.5511 17.6136C13.9413 17.2386 13.4678 16.714 13.1307 16.0398C12.7936 15.3655 12.625 14.5777 12.625 13.6761C12.625 12.7708 12.7936 11.9792 13.1307 11.3011C13.4678 10.6231 13.9413 10.0966 14.5511 9.72159C15.161 9.34659 15.875 9.15909 16.6932 9.15909C17.5114 9.15909 18.2254 9.34659 18.8352 9.72159C19.4451 10.0966 19.9186 10.6231 20.2557 11.3011C20.5928 11.9792 20.7614 12.7708 20.7614 13.6761C20.7614 14.5777 20.5928 15.3655 20.2557 16.0398C19.9186 16.714 19.4451 17.2386 18.8352 17.6136C18.2254 17.9886 17.5114 18.1761 16.6932 18.1761ZM16.6989 16.75C17.2292 16.75 17.6686 16.6098 18.017 16.3295C18.3655 16.0492 18.6231 15.6761 18.7898 15.2102C18.9602 14.7443 19.0455 14.2311 19.0455 13.6705C19.0455 13.1136 18.9602 12.6023 18.7898 12.1364C18.6231 11.6667 18.3655 11.2898 18.017 11.0057C17.6686 10.7216 17.2292 10.5795 16.6989 10.5795C16.1648 10.5795 15.7216 10.7216 15.3693 11.0057C15.0208 11.2898 14.7614 11.6667 14.5909 12.1364C14.4242 12.6023 14.3409 13.1136 14.3409 13.6705C14.3409 14.2311 14.4242 14.7443 14.5909 15.2102C14.7614 15.6761 15.0208 16.0492 15.3693 16.3295C15.7216 16.6098 16.1648 16.75 16.6989 16.75ZM22.6577 18V9.27273H24.2884V10.6932H24.3963C24.5781 10.2121 24.8755 9.83712 25.2884 9.56818C25.7012 9.29545 26.1955 9.15909 26.7713 9.15909C27.3546 9.15909 27.8433 9.29545 28.2372 9.56818C28.6349 9.84091 28.9285 10.2159 29.1179 10.6932H29.2088C29.4171 10.2273 29.7486 9.85606 30.2031 9.57955C30.6577 9.29924 31.1993 9.15909 31.8281 9.15909C32.6198 9.15909 33.2656 9.4072 33.7656 9.90341C34.2694 10.3996 34.5213 11.1477 34.5213 12.1477V18H32.8224V12.3068C32.8224 11.7159 32.6615 11.2879 32.3395 11.0227C32.0175 10.7576 31.633 10.625 31.1861 10.625C30.633 10.625 30.2031 10.7955 29.8963 11.1364C29.5895 11.4735 29.4361 11.9072 29.4361 12.4375V18H27.7429V12.1989C27.7429 11.7254 27.5952 11.3447 27.2997 11.0568C27.0043 10.7689 26.6198 10.625 26.1463 10.625C25.8243 10.625 25.527 10.7102 25.2543 10.8807C24.9853 11.0473 24.7675 11.2803 24.6009 11.5795C24.438 11.8788 24.3565 12.2254 24.3565 12.6193V18H22.6577ZM40.5597 18.1761C39.6998 18.1761 38.9593 17.9924 38.3381 17.625C37.7206 17.2538 37.2434 16.733 36.9062 16.0625C36.5729 15.3883 36.4062 14.5985 36.4062 13.6932C36.4062 12.7992 36.5729 12.0114 36.9062 11.3295C37.2434 10.6477 37.7131 10.1155 38.3153 9.73295C38.9214 9.35038 39.6297 9.15909 40.4403 9.15909C40.9328 9.15909 41.41 9.24053 41.8722 9.40341C42.3343 9.56629 42.7491 9.82197 43.1165 10.1705C43.4839 10.5189 43.7737 10.9716 43.9858 11.5284C44.1979 12.0814 44.304 12.7538 44.304 13.5455V14.1477H37.3665V12.875H42.6392C42.6392 12.428 42.5483 12.0322 42.3665 11.6875C42.1847 11.339 41.929 11.0644 41.5994 10.8636C41.2737 10.6629 40.8911 10.5625 40.4517 10.5625C39.9744 10.5625 39.5578 10.6799 39.2017 10.9148C38.8494 11.1458 38.5767 11.4489 38.3835 11.8239C38.1941 12.1951 38.0994 12.5985 38.0994 13.0341V14.0284C38.0994 14.6117 38.2017 15.108 38.4062 15.517C38.6146 15.9261 38.9044 16.2386 39.2756 16.4545C39.6468 16.6667 40.0805 16.7727 40.5767 16.7727C40.8987 16.7727 41.1922 16.7273 41.4574 16.6364C41.7225 16.5417 41.9517 16.4015 42.1449 16.2159C42.3381 16.0303 42.4858 15.8011 42.5881 15.5284L44.196 15.8182C44.0672 16.2917 43.8362 16.7064 43.5028 17.0625C43.1733 17.4148 42.7585 17.6894 42.2585 17.8864C41.7623 18.0795 41.196 18.1761 40.5597 18.1761Z" fill="#18191F"/>
</svg>
