<svg width="29" height="13" viewBox="0 0 29 13" fill="none" xmlns="http://www.w3.org/2000/svg">
<path d="M3.33786e-05 11.7954V0.159046H6.97731V1.40905H1.40912V5.34086H6.45458V6.59086H1.40912V11.7954H3.33786e-05ZM8.41481 11.7954H6.93753L11.2103 0.159046H12.6648L16.9375 11.7954H15.4603L11.983 1.99996H11.8921L8.41481 11.7954ZM8.96026 7.24996H14.9148V8.49996H8.96026V7.24996ZM22.4304 8.15905H23.9759L25.2713 9.86359L25.6122 10.3181L27.5441 12.8863H25.9986L24.7259 11.1818L24.4077 10.75L22.4304 8.15905ZM28.0213 5.97723C28.0213 7.2045 27.7997 8.26511 27.3566 9.15905C26.9134 10.053 26.3054 10.7424 25.5327 11.2272C24.76 11.7121 23.8774 11.9545 22.885 11.9545C21.8926 11.9545 21.01 11.7121 20.2372 11.2272C19.4645 10.7424 18.8566 10.053 18.4134 9.15905C17.9702 8.26511 17.7486 7.2045 17.7486 5.97723C17.7486 4.74996 17.9702 3.68935 18.4134 2.79541C18.8566 1.90147 19.4645 1.21208 20.2372 0.727228C21.01 0.24238 21.8926 -4.48227e-05 22.885 -4.48227e-05C23.8774 -4.48227e-05 24.76 0.24238 25.5327 0.727228C26.3054 1.21208 26.9134 1.90147 27.3566 2.79541C27.7997 3.68935 28.0213 4.74996 28.0213 5.97723ZM26.6577 5.97723C26.6577 4.96965 26.4891 4.11927 26.152 3.42609C25.8187 2.73291 25.366 2.20829 24.7941 1.85223C24.2259 1.49617 23.5895 1.31814 22.885 1.31814C22.1804 1.31814 21.5422 1.49617 20.9702 1.85223C20.402 2.20829 19.9494 2.73291 19.6122 3.42609C19.2789 4.11927 19.1122 4.96965 19.1122 5.97723C19.1122 6.9848 19.2789 7.83518 19.6122 8.52836C19.9494 9.22155 20.402 9.74617 20.9702 10.1022C21.5422 10.4583 22.1804 10.6363 22.885 10.6363C23.5895 10.6363 24.2259 10.4583 24.7941 10.1022C25.366 9.74617 25.8187 9.22155 26.152 8.52836C26.4891 7.83518 26.6577 6.9848 26.6577 5.97723Z" fill="#18191F"/>
</svg>
