<svg width="58" height="24" viewBox="0 0 58 24" fill="none" xmlns="http://www.w3.org/2000/svg">
<path d="M1.40909 18V6.36364H8.38636V7.61364H2.81818V11.5455H7.86364V12.7955H2.81818V18H1.40909ZM13.6364 18.1818C12.7955 18.1818 12.0701 17.9962 11.4602 17.625C10.8542 17.25 10.3864 16.7273 10.0568 16.0568C9.73106 15.3826 9.56818 14.5985 9.56818 13.7045C9.56818 12.8106 9.73106 12.0227 10.0568 11.3409C10.3864 10.6553 10.8447 10.1212 11.4318 9.73864C12.0227 9.35227 12.7121 9.15909 13.5 9.15909C13.9545 9.15909 14.4034 9.23485 14.8466 9.38636C15.2898 9.53788 15.6932 9.78409 16.0568 10.125C16.4205 10.4621 16.7102 10.9091 16.9261 11.4659C17.142 12.0227 17.25 12.7083 17.25 13.5227V14.0909H10.5227V12.9318H15.8864C15.8864 12.4394 15.7879 12 15.5909 11.6136C15.3977 11.2273 15.1212 10.9223 14.7614 10.6989C14.4053 10.4754 13.9848 10.3636 13.5 10.3636C12.9659 10.3636 12.5038 10.4962 12.1136 10.7614C11.7273 11.0227 11.4299 11.3636 11.2216 11.7841C11.0133 12.2045 10.9091 12.6553 10.9091 13.1364V13.9091C10.9091 14.5682 11.0227 15.1269 11.25 15.5852C11.4811 16.0398 11.8011 16.3864 12.2102 16.625C12.6193 16.8598 13.0947 16.9773 13.6364 16.9773C13.9886 16.9773 14.3068 16.928 14.5909 16.8295C14.8788 16.7273 15.1269 16.5758 15.3352 16.375C15.5436 16.1705 15.7045 15.9167 15.8182 15.6136L17.1136 15.9773C16.9773 16.4167 16.7481 16.803 16.4261 17.1364C16.1042 17.4659 15.7064 17.7235 15.233 17.9091C14.7595 18.0909 14.2273 18.1818 13.6364 18.1818ZM21.858 18.2045C21.3049 18.2045 20.803 18.1004 20.3523 17.892C19.9015 17.6799 19.5436 17.375 19.2784 16.9773C19.0133 16.5758 18.8807 16.0909 18.8807 15.5227C18.8807 15.0227 18.9792 14.6174 19.1761 14.3068C19.3731 13.9924 19.6364 13.7462 19.9659 13.5682C20.2955 13.3902 20.6591 13.2576 21.0568 13.1705C21.4583 13.0795 21.8617 13.0076 22.267 12.9545C22.7973 12.8864 23.2273 12.8352 23.5568 12.8011C23.8902 12.7633 24.1326 12.7008 24.2841 12.6136C24.4394 12.5265 24.517 12.375 24.517 12.1591V12.1136C24.517 11.553 24.3636 11.1174 24.0568 10.8068C23.7538 10.4962 23.2936 10.3409 22.6761 10.3409C22.036 10.3409 21.5341 10.4811 21.1705 10.7614C20.8068 11.0417 20.5511 11.3409 20.4034 11.6591L19.1307 11.2045C19.358 10.6742 19.661 10.2614 20.0398 9.96591C20.4223 9.66667 20.839 9.45833 21.2898 9.34091C21.7443 9.2197 22.1913 9.15909 22.6307 9.15909C22.911 9.15909 23.233 9.19318 23.5966 9.26136C23.964 9.32576 24.3182 9.46023 24.6591 9.66477C25.0038 9.86932 25.2898 10.178 25.517 10.5909C25.7443 11.0038 25.858 11.5568 25.858 12.25V18H24.517V16.8182H24.4489C24.358 17.0076 24.2064 17.2102 23.9943 17.4261C23.7822 17.642 23.5 17.8258 23.1477 17.9773C22.7955 18.1288 22.3655 18.2045 21.858 18.2045ZM22.0625 17C22.5928 17 23.0398 16.8958 23.4034 16.6875C23.7708 16.4792 24.0473 16.2102 24.233 15.8807C24.4223 15.5511 24.517 15.2045 24.517 14.8409V13.6136C24.4602 13.6818 24.3352 13.7443 24.142 13.8011C23.9527 13.8542 23.733 13.9015 23.483 13.9432C23.2367 13.9811 22.9962 14.0152 22.7614 14.0455C22.5303 14.072 22.3428 14.0947 22.1989 14.1136C21.8504 14.1591 21.5246 14.233 21.2216 14.3352C20.9223 14.4337 20.6799 14.5833 20.4943 14.7841C20.3125 14.9811 20.2216 15.25 20.2216 15.5909C20.2216 16.0568 20.3939 16.4091 20.7386 16.6477C21.0871 16.8826 21.5284 17 22.0625 17ZM32.1009 9.27273V10.4091H27.5781V9.27273H32.1009ZM28.8963 7.18182H30.2372V15.5C30.2372 15.8788 30.2921 16.1629 30.402 16.3523C30.5156 16.5379 30.6596 16.6629 30.8338 16.7273C31.0118 16.7879 31.1993 16.8182 31.3963 16.8182C31.544 16.8182 31.6652 16.8106 31.7599 16.7955C31.8546 16.7765 31.9304 16.7614 31.9872 16.75L32.2599 17.9545C32.169 17.9886 32.0421 18.0227 31.8793 18.0568C31.7164 18.0947 31.5099 18.1136 31.2599 18.1136C30.8812 18.1136 30.5099 18.0322 30.1463 17.8693C29.7865 17.7064 29.4872 17.4583 29.2486 17.125C29.0137 16.7917 28.8963 16.3712 28.8963 15.8636V7.18182ZM39.6179 14.4318V9.27273H40.9588V18H39.6179V16.5227H39.527C39.3224 16.9659 39.0043 17.3428 38.5724 17.6534C38.1406 17.9602 37.5952 18.1136 36.9361 18.1136C36.3906 18.1136 35.9058 17.9943 35.4815 17.7557C35.0573 17.5133 34.724 17.1496 34.4815 16.6648C34.2391 16.1761 34.1179 15.5606 34.1179 14.8182V9.27273H35.4588V14.7273C35.4588 15.3636 35.6368 15.8712 35.9929 16.25C36.3527 16.6288 36.8111 16.8182 37.3679 16.8182C37.7012 16.8182 38.0402 16.733 38.3849 16.5625C38.7334 16.392 39.0251 16.1307 39.2599 15.7784C39.4986 15.4261 39.6179 14.9773 39.6179 14.4318ZM43.4148 18V9.27273H44.7102V10.5909H44.8011C44.9602 10.1591 45.2481 9.80871 45.6648 9.53977C46.0814 9.27083 46.5511 9.13636 47.0739 9.13636C47.1723 9.13636 47.2955 9.13826 47.4432 9.14205C47.5909 9.14583 47.7027 9.15152 47.7784 9.15909V10.5227C47.733 10.5114 47.6288 10.4943 47.4659 10.4716C47.3068 10.4451 47.1383 10.4318 46.9602 10.4318C46.536 10.4318 46.1572 10.5208 45.8239 10.6989C45.4943 10.8731 45.233 11.1155 45.0398 11.4261C44.8504 11.733 44.7557 12.0833 44.7557 12.4773V18H43.4148ZM52.7614 18.1818C51.9205 18.1818 51.1951 17.9962 50.5852 17.625C49.9792 17.25 49.5114 16.7273 49.1818 16.0568C48.8561 15.3826 48.6932 14.5985 48.6932 13.7045C48.6932 12.8106 48.8561 12.0227 49.1818 11.3409C49.5114 10.6553 49.9697 10.1212 50.5568 9.73864C51.1477 9.35227 51.8371 9.15909 52.625 9.15909C53.0795 9.15909 53.5284 9.23485 53.9716 9.38636C54.4148 9.53788 54.8182 9.78409 55.1818 10.125C55.5455 10.4621 55.8352 10.9091 56.0511 11.4659C56.267 12.0227 56.375 12.7083 56.375 13.5227V14.0909H49.6477V12.9318H55.0114C55.0114 12.4394 54.9129 12 54.7159 11.6136C54.5227 11.2273 54.2462 10.9223 53.8864 10.6989C53.5303 10.4754 53.1098 10.3636 52.625 10.3636C52.0909 10.3636 51.6288 10.4962 51.2386 10.7614C50.8523 11.0227 50.5549 11.3636 50.3466 11.7841C50.1383 12.2045 50.0341 12.6553 50.0341 13.1364V13.9091C50.0341 14.5682 50.1477 15.1269 50.375 15.5852C50.6061 16.0398 50.9261 16.3864 51.3352 16.625C51.7443 16.8598 52.2197 16.9773 52.7614 16.9773C53.1136 16.9773 53.4318 16.928 53.7159 16.8295C54.0038 16.7273 54.2519 16.5758 54.4602 16.375C54.6686 16.1705 54.8295 15.9167 54.9432 15.6136L56.2386 15.9773C56.1023 16.4167 55.8731 16.803 55.5511 17.1364C55.2292 17.4659 54.8314 17.7235 54.358 17.9091C53.8845 18.0909 53.3523 18.1818 52.7614 18.1818Z" fill="#18191F"/>
</svg>
