<svg width="58" height="12" viewBox="0 0 58 12" fill="none" xmlns="http://www.w3.org/2000/svg">
<path d="M3.33786e-05 11.6365V0.000110626H3.93185C4.84473 0.000110626 5.59094 0.164883 6.17049 0.494429C6.75382 0.820187 7.18564 1.26147 7.46594 1.81829C7.74625 2.37511 7.8864 2.99632 7.8864 3.68193C7.8864 4.36754 7.74625 4.99064 7.46594 5.55125C7.18943 6.11185 6.7614 6.55882 6.18185 6.89216C5.60231 7.2217 4.85988 7.38647 3.95458 7.38647H1.1364V6.13647H3.90912C4.53412 6.13647 5.03602 6.02852 5.41481 5.81261C5.79359 5.5967 6.06822 5.30503 6.23867 4.93761C6.41291 4.5664 6.50003 4.14784 6.50003 3.68193C6.50003 3.21602 6.41291 2.79935 6.23867 2.43193C6.06822 2.0645 5.7917 1.77663 5.40912 1.56829C5.02655 1.35617 4.51897 1.25011 3.8864 1.25011H1.40912V11.6365H3.33786e-05ZM9.97447 11.6365V2.9092H11.2699V4.22738H11.3608C11.5199 3.79557 11.8078 3.44519 12.2245 3.17625C12.6411 2.90731 13.1108 2.77284 13.6336 2.77284C13.732 2.77284 13.8551 2.77473 14.0029 2.77852C14.1506 2.78231 14.2623 2.78799 14.3381 2.79557V4.1592C14.2926 4.14784 14.1885 4.13079 14.0256 4.10807C13.8665 4.08155 13.698 4.06829 13.5199 4.06829C13.0957 4.06829 12.7169 4.15731 12.3836 4.33534C12.054 4.50958 11.7926 4.752 11.5995 5.06261C11.4101 5.36943 11.3154 5.71981 11.3154 6.11375V11.6365H9.97447ZM19.2074 11.8183C18.4195 11.8183 17.7283 11.6308 17.1336 11.2558C16.5426 10.8808 16.0805 10.3562 15.7472 9.68193C15.4176 9.00769 15.2529 8.21981 15.2529 7.31829C15.2529 6.4092 15.4176 5.61564 15.7472 4.93761C16.0805 4.25958 16.5426 3.73307 17.1336 3.35807C17.7283 2.98307 18.4195 2.79557 19.2074 2.79557C19.9953 2.79557 20.6847 2.98307 21.2756 3.35807C21.8703 3.73307 22.3324 4.25958 22.662 4.93761C22.9953 5.61564 23.162 6.4092 23.162 7.31829C23.162 8.21981 22.9953 9.00769 22.662 9.68193C22.3324 10.3562 21.8703 10.8808 21.2756 11.2558C20.6847 11.6308 19.9953 11.8183 19.2074 11.8183ZM19.2074 10.6137C19.8059 10.6137 20.2983 10.4603 20.6847 10.1535C21.0711 9.8467 21.357 9.44329 21.5426 8.94329C21.7283 8.44329 21.8211 7.90163 21.8211 7.31829C21.8211 6.73496 21.7283 6.1914 21.5426 5.68761C21.357 5.18382 21.0711 4.77663 20.6847 4.46602C20.2983 4.15541 19.8059 4.00011 19.2074 4.00011C18.6089 4.00011 18.1165 4.15541 17.7301 4.46602C17.3438 4.77663 17.0578 5.18382 16.8722 5.68761C16.6866 6.1914 16.5938 6.73496 16.5938 7.31829C16.5938 7.90163 16.6866 8.44329 16.8722 8.94329C17.0578 9.44329 17.3438 9.8467 17.7301 10.1535C18.1165 10.4603 18.6089 10.6137 19.2074 10.6137ZM28.5043 11.8183C27.777 11.8183 27.135 11.6346 26.5782 11.2672C26.0213 10.8959 25.5857 10.3732 25.2713 9.69897C24.9569 9.02094 24.7997 8.21981 24.7997 7.29557C24.7997 6.3789 24.9569 5.58344 25.2713 4.9092C25.5857 4.23496 26.0232 3.71413 26.5838 3.3467C27.1444 2.97928 27.7922 2.79557 28.527 2.79557C29.0952 2.79557 29.5441 2.89026 29.8736 3.07966C30.2069 3.26526 30.4607 3.47738 30.635 3.71602C30.813 3.95087 30.9513 4.14405 31.0497 4.29557H31.1634V0.000110626H32.5043V11.6365H31.2088V10.2956H31.0497C30.9513 10.4547 30.8111 10.6554 30.6293 10.8978C30.4475 11.1365 30.188 11.3505 29.8509 11.5399C29.5138 11.7255 29.0649 11.8183 28.5043 11.8183ZM28.6861 10.6137C29.224 10.6137 29.6785 10.4736 30.0497 10.1933C30.421 9.9092 30.7032 9.51716 30.8963 9.01716C31.0895 8.51337 31.1861 7.93193 31.1861 7.27284C31.1861 6.62132 31.0914 6.05125 30.902 5.56261C30.7126 5.07019 30.4323 4.68761 30.0611 4.41488C29.6899 4.13837 29.2316 4.00011 28.6861 4.00011C28.1179 4.00011 27.6444 4.14594 27.2657 4.43761C26.8907 4.72549 26.6085 5.11754 26.4191 5.61375C26.2335 6.10617 26.1407 6.6592 26.1407 7.27284C26.1407 7.89405 26.2354 8.45844 26.4247 8.96602C26.6179 9.46981 26.902 9.87132 27.277 10.1706C27.6558 10.466 28.1255 10.6137 28.6861 10.6137ZM40.6463 8.06829V2.9092H41.9872V11.6365H40.6463V10.1592H40.5554C40.3509 10.6024 40.0327 10.9793 39.6009 11.2899C39.1691 11.5967 38.6236 11.7501 37.9645 11.7501C37.4191 11.7501 36.9342 11.6308 36.51 11.3922C36.0857 11.1497 35.7524 10.7861 35.51 10.3012C35.2676 9.81261 35.1463 9.19708 35.1463 8.45466V2.9092H36.4872V8.36375C36.4872 9.00011 36.6653 9.50769 37.0213 9.88647C37.3812 10.2653 37.8395 10.4547 38.3963 10.4547C38.7297 10.4547 39.0687 10.3694 39.4134 10.199C39.7619 10.0285 40.0535 9.76716 40.2884 9.41488C40.527 9.06261 40.6463 8.61375 40.6463 8.06829ZM47.9887 11.8183C47.1705 11.8183 46.4659 11.6251 45.875 11.2387C45.2841 10.8524 44.8296 10.3202 44.5114 9.64216C44.1932 8.96413 44.0341 8.1895 44.0341 7.31829C44.0341 6.43193 44.197 5.64973 44.5228 4.9717C44.8523 4.28988 45.3106 3.75769 45.8978 3.37511C46.4887 2.98875 47.1781 2.79557 47.9659 2.79557C48.5796 2.79557 49.1326 2.9092 49.625 3.13647C50.1175 3.36375 50.5209 3.68193 50.8353 4.09102C51.1497 4.50011 51.3447 4.97738 51.4205 5.52284H50.0796C49.9773 5.12511 49.75 4.77284 49.3978 4.46602C49.0493 4.15541 48.5796 4.00011 47.9887 4.00011C47.4659 4.00011 47.0076 4.13647 46.6137 4.4092C46.2235 4.67814 45.9186 5.05882 45.6989 5.55125C45.483 6.03988 45.375 6.61375 45.375 7.27284C45.375 7.94708 45.4811 8.5342 45.6932 9.0342C45.9091 9.5342 46.2122 9.92246 46.6023 10.199C46.9962 10.4755 47.4584 10.6137 47.9887 10.6137C48.3372 10.6137 48.6534 10.5531 48.9375 10.4319C49.2216 10.3107 49.4622 10.1365 49.6591 9.9092C49.8561 9.68193 49.9962 9.4092 50.0796 9.09102H51.4205C51.3447 9.60617 51.1572 10.0702 50.858 10.4831C50.5625 10.8922 50.1705 11.2179 49.6819 11.4603C49.197 11.699 48.6326 11.8183 47.9887 11.8183ZM57.1762 2.9092V4.04557H52.6534V2.9092H57.1762ZM53.9716 0.818293H55.3125V9.13647C55.3125 9.51526 55.3675 9.79935 55.4773 9.98875C55.5909 10.1744 55.7349 10.2994 55.9091 10.3637C56.0872 10.4244 56.2747 10.4547 56.4716 10.4547C56.6194 10.4547 56.7406 10.4471 56.8353 10.4319C56.93 10.413 57.0057 10.3978 57.0625 10.3865L57.3353 11.591C57.2444 11.6251 57.1175 11.6592 56.9546 11.6933C56.7917 11.7312 56.5853 11.7501 56.3353 11.7501C55.9565 11.7501 55.5853 11.6687 55.2216 11.5058C54.8618 11.3429 54.5625 11.0948 54.3239 10.7615C54.089 10.4281 53.9716 10.0077 53.9716 9.50011V0.818293Z" fill="#18191F"/>
</svg>
