<svg width="57" height="24" viewBox="0 0 57 24" fill="none" xmlns="http://www.w3.org/2000/svg">
<path d="M7.77273 9.27273C7.70455 8.69697 7.42803 8.25 6.94318 7.93182C6.45833 7.61364 5.86364 7.45455 5.15909 7.45455C4.64394 7.45455 4.19318 7.53788 3.80682 7.70455C3.42424 7.87121 3.125 8.10038 2.90909 8.39205C2.69697 8.68371 2.59091 9.01515 2.59091 9.38636C2.59091 9.69697 2.66477 9.96401 2.8125 10.1875C2.96402 10.4072 3.1572 10.5909 3.39205 10.7386C3.62689 10.8826 3.87311 11.0019 4.13068 11.0966C4.38826 11.1875 4.625 11.2614 4.84091 11.3182L6.02273 11.6364C6.32576 11.7159 6.66288 11.8258 7.03409 11.9659C7.40909 12.1061 7.76705 12.2973 8.10795 12.5398C8.45265 12.7784 8.73674 13.0852 8.96023 13.4602C9.18371 13.8352 9.29545 14.2955 9.29545 14.8409C9.29545 15.4697 9.13068 16.0379 8.80114 16.5455C8.47538 17.053 7.99811 17.4564 7.36932 17.7557C6.74432 18.0549 5.98485 18.2045 5.09091 18.2045C4.25758 18.2045 3.53598 18.0701 2.92614 17.8011C2.32008 17.5322 1.8428 17.1572 1.49432 16.6761C1.14962 16.1951 0.954545 15.6364 0.909091 15H2.36364C2.40152 15.4394 2.54924 15.803 2.80682 16.0909C3.06818 16.375 3.39773 16.5871 3.79545 16.7273C4.19697 16.8636 4.62879 16.9318 5.09091 16.9318C5.62879 16.9318 6.11174 16.8447 6.53977 16.6705C6.9678 16.4924 7.30682 16.2462 7.55682 15.9318C7.80682 15.6136 7.93182 15.2424 7.93182 14.8182C7.93182 14.4318 7.82386 14.1174 7.60795 13.875C7.39205 13.6326 7.10795 13.4356 6.75568 13.2841C6.40341 13.1326 6.02273 13 5.61364 12.8864L4.18182 12.4773C3.27273 12.2159 2.55303 11.8428 2.02273 11.358C1.49242 10.8731 1.22727 10.2386 1.22727 9.45455C1.22727 8.80303 1.40341 8.23485 1.75568 7.75C2.11174 7.26136 2.58902 6.88258 3.1875 6.61364C3.78977 6.34091 4.46212 6.20455 5.20455 6.20455C5.95455 6.20455 6.62121 6.33901 7.20455 6.60795C7.78788 6.87311 8.25 7.23674 8.59091 7.69886C8.93561 8.16098 9.11742 8.68561 9.13636 9.27273H7.77273ZM15.0895 18.1818C14.2486 18.1818 13.5232 17.9962 12.9134 17.625C12.3073 17.25 11.8395 16.7273 11.5099 16.0568C11.1842 15.3826 11.0213 14.5985 11.0213 13.7045C11.0213 12.8106 11.1842 12.0227 11.5099 11.3409C11.8395 10.6553 12.2978 10.1212 12.8849 9.73864C13.4759 9.35227 14.1652 9.15909 14.9531 9.15909C15.4077 9.15909 15.8565 9.23485 16.2997 9.38636C16.7429 9.53788 17.1463 9.78409 17.5099 10.125C17.8736 10.4621 18.1634 10.9091 18.3793 11.4659C18.5952 12.0227 18.7031 12.7083 18.7031 13.5227V14.0909H11.9759V12.9318H17.3395C17.3395 12.4394 17.241 12 17.044 11.6136C16.8509 11.2273 16.5743 10.9223 16.2145 10.6989C15.8584 10.4754 15.438 10.3636 14.9531 10.3636C14.419 10.3636 13.9569 10.4962 13.5668 10.7614C13.1804 11.0227 12.883 11.3636 12.6747 11.7841C12.4664 12.2045 12.3622 12.6553 12.3622 13.1364V13.9091C12.3622 14.5682 12.4759 15.1269 12.7031 15.5852C12.9342 16.0398 13.2543 16.3864 13.6634 16.625C14.0724 16.8598 14.5478 16.9773 15.0895 16.9773C15.4418 16.9773 15.7599 16.928 16.044 16.8295C16.3319 16.7273 16.58 16.5758 16.7884 16.375C16.9967 16.1705 17.1577 15.9167 17.2713 15.6136L18.5668 15.9773C18.4304 16.4167 18.2012 16.803 17.8793 17.1364C17.5573 17.4659 17.1596 17.7235 16.6861 17.9091C16.2126 18.0909 15.6804 18.1818 15.0895 18.1818ZM20.7429 18V9.27273H22.0384V10.5909H22.1293C22.2884 10.1591 22.5762 9.80871 22.9929 9.53977C23.4096 9.27083 23.8793 9.13636 24.402 9.13636C24.5005 9.13636 24.6236 9.13826 24.7713 9.14205C24.919 9.14583 25.0308 9.15152 25.1065 9.15909V10.5227C25.0611 10.5114 24.9569 10.4943 24.794 10.4716C24.6349 10.4451 24.4664 10.4318 24.2884 10.4318C23.8641 10.4318 23.4853 10.5208 23.152 10.6989C22.8224 10.8731 22.5611 11.1155 22.3679 11.4261C22.1785 11.733 22.0838 12.0833 22.0838 12.4773V18H20.7429ZM34.098 9.27273L30.8707 18H29.5071L26.2798 9.27273H27.7344L30.1435 16.2273H30.2344L32.6435 9.27273H34.098ZM35.8679 18V9.27273H37.2088V18H35.8679ZM36.5497 7.81818C36.2884 7.81818 36.063 7.72917 35.8736 7.55114C35.688 7.37311 35.5952 7.15909 35.5952 6.90909C35.5952 6.65909 35.688 6.44508 35.8736 6.26705C36.063 6.08902 36.2884 6 36.5497 6C36.8111 6 37.0346 6.08902 37.2202 6.26705C37.4096 6.44508 37.5043 6.65909 37.5043 6.90909C37.5043 7.15909 37.4096 7.37311 37.2202 7.55114C37.0346 7.72917 36.8111 7.81818 36.5497 7.81818ZM43.2102 18.1818C42.392 18.1818 41.6875 17.9886 41.0966 17.6023C40.5057 17.2159 40.0511 16.6837 39.733 16.0057C39.4148 15.3277 39.2557 14.553 39.2557 13.6818C39.2557 12.7955 39.4186 12.0133 39.7443 11.3352C40.0739 10.6534 40.5322 10.1212 41.1193 9.73864C41.7102 9.35227 42.3996 9.15909 43.1875 9.15909C43.8011 9.15909 44.3542 9.27273 44.8466 9.5C45.339 9.72727 45.7424 10.0455 46.0568 10.4545C46.3712 10.8636 46.5663 11.3409 46.642 11.8864H45.3011C45.1989 11.4886 44.9716 11.1364 44.6193 10.8295C44.2708 10.5189 43.8011 10.3636 43.2102 10.3636C42.6875 10.3636 42.2292 10.5 41.8352 10.7727C41.4451 11.0417 41.1402 11.4223 40.9205 11.9148C40.7045 12.4034 40.5966 12.9773 40.5966 13.6364C40.5966 14.3106 40.7027 14.8977 40.9148 15.3977C41.1307 15.8977 41.4337 16.286 41.8239 16.5625C42.2178 16.839 42.6799 16.9773 43.2102 16.9773C43.5587 16.9773 43.875 16.9167 44.1591 16.7955C44.4432 16.6742 44.6837 16.5 44.8807 16.2727C45.0777 16.0455 45.2178 15.7727 45.3011 15.4545H46.642C46.5663 15.9697 46.3788 16.4337 46.0795 16.8466C45.7841 17.2557 45.392 17.5814 44.9034 17.8239C44.4186 18.0625 43.8542 18.1818 43.2102 18.1818ZM52.2614 18.1818C51.4205 18.1818 50.6951 17.9962 50.0852 17.625C49.4792 17.25 49.0114 16.7273 48.6818 16.0568C48.3561 15.3826 48.1932 14.5985 48.1932 13.7045C48.1932 12.8106 48.3561 12.0227 48.6818 11.3409C49.0114 10.6553 49.4697 10.1212 50.0568 9.73864C50.6477 9.35227 51.3371 9.15909 52.125 9.15909C52.5795 9.15909 53.0284 9.23485 53.4716 9.38636C53.9148 9.53788 54.3182 9.78409 54.6818 10.125C55.0455 10.4621 55.3352 10.9091 55.5511 11.4659C55.767 12.0227 55.875 12.7083 55.875 13.5227V14.0909H49.1477V12.9318H54.5114C54.5114 12.4394 54.4129 12 54.2159 11.6136C54.0227 11.2273 53.7462 10.9223 53.3864 10.6989C53.0303 10.4754 52.6098 10.3636 52.125 10.3636C51.5909 10.3636 51.1288 10.4962 50.7386 10.7614C50.3523 11.0227 50.0549 11.3636 49.8466 11.7841C49.6383 12.2045 49.5341 12.6553 49.5341 13.1364V13.9091C49.5341 14.5682 49.6477 15.1269 49.875 15.5852C50.1061 16.0398 50.4261 16.3864 50.8352 16.625C51.2443 16.8598 51.7197 16.9773 52.2614 16.9773C52.6136 16.9773 52.9318 16.928 53.2159 16.8295C53.5038 16.7273 53.7519 16.5758 53.9602 16.375C54.1686 16.1705 54.3295 15.9167 54.4432 15.6136L55.7386 15.9773C55.6023 16.4167 55.3731 16.803 55.0511 17.1364C54.7292 17.4659 54.3314 17.7235 53.858 17.9091C53.3845 18.0909 52.8523 18.1818 52.2614 18.1818Z" fill="#18191F"/>
</svg>
