<svg width="91" height="40" viewBox="0 0 91 40" fill="none" xmlns="http://www.w3.org/2000/svg">
<rect width="91" height="40" rx="6" fill="#4CAF4F"/>
<path d="M27.084 17.4929H28.5655C28.5208 15.8622 27.079 14.679 25.0108 14.679C22.9675 14.679 21.4015 15.8473 21.4015 17.6023C21.4015 19.0192 22.4157 19.8494 24.0513 20.2919L25.2544 20.62C26.3432 20.9084 27.1834 21.2663 27.1834 22.1712C27.1834 23.1655 26.2338 23.8217 24.9263 23.8217C23.7431 23.8217 22.7587 23.2947 22.6692 22.1861H21.128C21.2275 24.0305 22.6543 25.169 24.9363 25.169C27.3276 25.169 28.7047 23.9112 28.7047 22.1861C28.7047 20.3516 27.0691 19.6406 25.7765 19.3224L24.7821 19.0639C23.9867 18.8601 22.9277 18.4872 22.9327 17.5128C22.9327 16.6477 23.7232 16.0064 24.976 16.0064C26.1444 16.0064 26.9746 16.5533 27.084 17.4929ZM30.4212 25H31.9077V17.3636H30.4212V25ZM31.1719 16.1854C31.6839 16.1854 32.1115 15.7876 32.1115 15.3004C32.1115 14.8132 31.6839 14.4105 31.1719 14.4105C30.6548 14.4105 30.2322 14.8132 30.2322 15.3004C30.2322 15.7876 30.6548 16.1854 31.1719 16.1854ZM37.1092 28.0227C39.0531 28.0227 40.5545 27.1328 40.5545 25.169V17.3636H39.0978V18.6016H38.9885C38.725 18.1293 38.198 17.2642 36.7761 17.2642C34.9316 17.2642 33.5744 18.7209 33.5744 21.152C33.5744 23.5881 34.9615 24.8857 36.7662 24.8857C38.1681 24.8857 38.71 24.0952 38.9785 23.608H39.073V25.1094C39.073 26.3075 38.2527 26.8246 37.1241 26.8246C35.8862 26.8246 35.4039 26.2031 35.1404 25.7656L33.8627 26.2926C34.2654 27.2273 35.2846 28.0227 37.1092 28.0227ZM37.0943 23.6527C35.7669 23.6527 35.0758 22.6335 35.0758 21.1321C35.0758 19.6655 35.752 18.527 37.0943 18.527C38.3919 18.527 39.0879 19.5859 39.0879 21.1321C39.0879 22.7081 38.377 23.6527 37.0943 23.6527ZM44.0346 20.4659C44.0346 19.2479 44.7804 18.5518 45.8145 18.5518C46.8237 18.5518 47.4352 19.2131 47.4352 20.3217V25H48.9217V20.1428C48.9217 18.2536 47.8826 17.2642 46.3216 17.2642C45.1731 17.2642 44.4224 17.7962 44.0694 18.6065H43.975V17.3636H42.5481V25H44.0346V20.4659ZM59.4577 21.8331C59.4627 23.1307 58.4982 23.7472 57.663 23.7472C56.7433 23.7472 56.1069 23.081 56.1069 22.0419V17.3636H54.6204V22.2209C54.6204 24.1151 55.6594 25.0994 57.1261 25.0994C58.2745 25.0994 59.055 24.4929 59.408 23.6776H59.4876V25H60.9492V17.3636H59.4577V21.8331ZM62.9466 27.8636H64.4331V23.8118H64.5225C64.791 24.299 65.3379 25.1491 66.7299 25.1491C68.5794 25.1491 69.9217 23.6676 69.9217 21.1967C69.9217 18.7209 68.5595 17.2642 66.715 17.2642C65.2981 17.2642 64.786 18.1293 64.5225 18.6016H64.3983V17.3636H62.9466V27.8636ZM64.4032 21.1818C64.4032 19.5859 65.0993 18.527 66.3968 18.527C67.7441 18.527 68.4203 19.6655 68.4203 21.1818C68.4203 22.7131 67.7243 23.8814 66.3968 23.8814C65.1191 23.8814 64.4032 22.7876 64.4032 21.1818Z" fill="white"/>
</svg>
