<svg width="84" height="13" viewBox="0 0 84 13" fill="none" xmlns="http://www.w3.org/2000/svg">
<path d="M2.22325e-05 1.61364V0.363636H8.72729V1.61364H5.0682V12H3.65911V1.61364H2.22325e-05ZM13.1137 12.1818C12.2727 12.1818 11.5474 11.9962 10.9375 11.625C10.3315 11.25 9.86366 10.7273 9.53411 10.0568C9.20836 9.38258 9.04548 8.59848 9.04548 7.70455C9.04548 6.81061 9.20836 6.02273 9.53411 5.34091C9.86366 4.6553 10.322 4.12121 10.9091 3.73864C11.5 3.35227 12.1894 3.15909 12.9773 3.15909C13.4318 3.15909 13.8807 3.23485 14.3239 3.38636C14.7671 3.53788 15.1705 3.78409 15.5341 4.125C15.8977 4.46212 16.1875 4.90909 16.4034 5.46591C16.6193 6.02273 16.7273 6.70833 16.7273 7.52273V8.09091H10V6.93182H15.3637C15.3637 6.43939 15.2652 6 15.0682 5.61364C14.875 5.22727 14.5985 4.92235 14.2387 4.69886C13.8826 4.47538 13.4621 4.36364 12.9773 4.36364C12.4432 4.36364 11.9811 4.49621 11.5909 4.76136C11.2046 5.02273 10.9072 5.36364 10.6989 5.78409C10.4906 6.20455 10.3864 6.6553 10.3864 7.13636V7.90909C10.3864 8.56818 10.5 9.12689 10.7273 9.58523C10.9584 10.0398 11.2784 10.3864 11.6875 10.625C12.0966 10.8598 12.572 10.9773 13.1137 10.9773C13.4659 10.9773 13.7841 10.928 14.0682 10.8295C14.3561 10.7273 14.6042 10.5758 14.8125 10.375C15.0209 10.1705 15.1818 9.91667 15.2955 9.61364L16.5909 9.97727C16.4546 10.4167 16.2254 10.803 15.9034 11.1364C15.5815 11.4659 15.1837 11.7235 14.7102 11.9091C14.2368 12.0909 13.7046 12.1818 13.1137 12.1818ZM24.9489 5.22727L23.7443 5.56818C23.6686 5.36742 23.5568 5.17235 23.4091 4.98295C23.2652 4.78977 23.0682 4.63068 22.8182 4.50568C22.5682 4.38068 22.2481 4.31818 21.858 4.31818C21.3239 4.31818 20.8788 4.44129 20.5227 4.6875C20.1705 4.92992 19.9943 5.23864 19.9943 5.61364C19.9943 5.94697 20.1156 6.21023 20.358 6.40341C20.6004 6.59659 20.9792 6.75758 21.4943 6.88636L22.7898 7.20455C23.5701 7.39394 24.1515 7.68371 24.5341 8.07386C24.9167 8.46023 25.108 8.95833 25.108 9.56818C25.108 10.0682 24.964 10.5152 24.6762 10.9091C24.3921 11.303 23.9943 11.6136 23.483 11.8409C22.9716 12.0682 22.3769 12.1818 21.6989 12.1818C20.8087 12.1818 20.072 11.9886 19.4887 11.6023C18.9053 11.2159 18.536 10.6515 18.3807 9.90909L19.6534 9.59091C19.7746 10.0606 20.0038 10.4129 20.3409 10.6477C20.6818 10.8826 21.1269 11 21.6762 11C22.3012 11 22.7974 10.8674 23.1648 10.6023C23.536 10.3333 23.7216 10.0114 23.7216 9.63636C23.7216 9.33333 23.6156 9.07955 23.4034 8.875C23.1913 8.66667 22.8656 8.51136 22.4262 8.40909L20.9716 8.06818C20.1724 7.87879 19.5852 7.58523 19.2102 7.1875C18.839 6.78598 18.6534 6.28409 18.6534 5.68182C18.6534 5.18939 18.7917 4.75379 19.0682 4.375C19.3485 3.99621 19.7292 3.69886 20.2102 3.48295C20.6951 3.26705 21.2443 3.15909 21.858 3.15909C22.7216 3.15909 23.3996 3.34848 23.8921 3.72727C24.3883 4.10606 24.7406 4.60606 24.9489 5.22727ZM30.9219 3.27273V4.40909H26.3992V3.27273H30.9219ZM27.7174 1.18182H29.0583V9.5C29.0583 9.87879 29.1132 10.1629 29.223 10.3523C29.3367 10.5379 29.4806 10.6629 29.6549 10.7273C29.8329 10.7879 30.0204 10.8182 30.2174 10.8182C30.3651 10.8182 30.4863 10.8106 30.581 10.7955C30.6757 10.7765 30.7514 10.7614 30.8083 10.75L31.081 11.9545C30.9901 11.9886 30.8632 12.0227 30.7003 12.0568C30.5374 12.0947 30.331 12.1136 30.081 12.1136C29.7022 12.1136 29.331 12.0322 28.9674 11.8693C28.6075 11.7064 28.3083 11.4583 28.0696 11.125C27.8348 10.7917 27.7174 10.3712 27.7174 9.86364V1.18182ZM32.9389 12V3.27273H34.2799V12H32.9389ZM33.6208 1.81818C33.3594 1.81818 33.134 1.72917 32.9446 1.55114C32.759 1.37311 32.6662 1.15909 32.6662 0.909091C32.6662 0.659091 32.759 0.445076 32.9446 0.267045C33.134 0.089015 33.3594 0 33.6208 0C33.8821 0 34.1056 0.089015 34.2912 0.267045C34.4806 0.445076 34.5753 0.659091 34.5753 0.909091C34.5753 1.15909 34.4806 1.37311 34.2912 1.55114C34.1056 1.72917 33.8821 1.81818 33.6208 1.81818ZM36.7358 12V3.27273H38.0313V4.63636H38.1449C38.3267 4.17045 38.6203 3.80871 39.0256 3.55114C39.4309 3.28977 39.9176 3.15909 40.4858 3.15909C41.0616 3.15909 41.5407 3.28977 41.9233 3.55114C42.3097 3.80871 42.6108 4.17045 42.8267 4.63636H42.9176C43.1411 4.18561 43.4763 3.82765 43.9233 3.5625C44.3703 3.29356 44.9063 3.15909 45.5313 3.15909C46.3116 3.15909 46.9498 3.40341 47.446 3.89205C47.9423 4.37689 48.1904 5.13258 48.1904 6.15909V12H46.8495V6.15909C46.8495 5.51515 46.6733 5.05492 46.321 4.77841C45.9688 4.50189 45.554 4.36364 45.0767 4.36364C44.4631 4.36364 43.9877 4.54924 43.6506 4.92045C43.3135 5.28788 43.1449 5.75379 43.1449 6.31818V12H41.7813V6.02273C41.7813 5.52652 41.6203 5.12689 41.2983 4.82386C40.9763 4.51705 40.5616 4.36364 40.054 4.36364C39.7055 4.36364 39.3798 4.45644 39.0767 4.64205C38.7775 4.82765 38.5351 5.08523 38.3495 5.41477C38.1676 5.74053 38.0767 6.11742 38.0767 6.54545V12H36.7358ZM54.1875 12.1818C53.3996 12.1818 52.7084 11.9943 52.1137 11.6193C51.5227 11.2443 51.0606 10.7197 50.7273 10.0455C50.3977 9.37121 50.233 8.58333 50.233 7.68182C50.233 6.77273 50.3977 5.97917 50.7273 5.30114C51.0606 4.62311 51.5227 4.09659 52.1137 3.72159C52.7084 3.34659 53.3996 3.15909 54.1875 3.15909C54.9754 3.15909 55.6648 3.34659 56.2557 3.72159C56.8504 4.09659 57.3125 4.62311 57.6421 5.30114C57.9754 5.97917 58.1421 6.77273 58.1421 7.68182C58.1421 8.58333 57.9754 9.37121 57.6421 10.0455C57.3125 10.7197 56.8504 11.2443 56.2557 11.6193C55.6648 11.9943 54.9754 12.1818 54.1875 12.1818ZM54.1875 10.9773C54.786 10.9773 55.2784 10.8239 55.6648 10.517C56.0512 10.2102 56.3371 9.80682 56.5227 9.30682C56.7084 8.80682 56.8012 8.26515 56.8012 7.68182C56.8012 7.09848 56.7084 6.55492 56.5227 6.05114C56.3371 5.54735 56.0512 5.14015 55.6648 4.82955C55.2784 4.51894 54.786 4.36364 54.1875 4.36364C53.589 4.36364 53.0966 4.51894 52.7102 4.82955C52.3239 5.14015 52.0379 5.54735 51.8523 6.05114C51.6667 6.55492 51.5739 7.09848 51.5739 7.68182C51.5739 8.26515 51.6667 8.80682 51.8523 9.30682C52.0379 9.80682 52.3239 10.2102 52.7102 10.517C53.0966 10.8239 53.589 10.9773 54.1875 10.9773ZM61.5299 6.75V12H60.1889V3.27273H61.4844V4.63636H61.598C61.8026 4.19318 62.1132 3.83712 62.5299 3.56818C62.9465 3.29545 63.4844 3.15909 64.1435 3.15909C64.7344 3.15909 65.2514 3.2803 65.6946 3.52273C66.1378 3.76136 66.4825 4.125 66.7287 4.61364C66.9749 5.09848 67.098 5.71212 67.098 6.45455V12H65.7571V6.54545C65.7571 5.85985 65.5791 5.32576 65.223 4.94318C64.867 4.55682 64.3783 4.36364 63.7571 4.36364C63.3291 4.36364 62.9465 4.45644 62.6094 4.64205C62.2761 4.82765 62.0128 5.09848 61.8196 5.45455C61.6264 5.81061 61.5299 6.24242 61.5299 6.75ZM69.5483 12V3.27273H70.8892V12H69.5483ZM70.2301 1.81818C69.9688 1.81818 69.7434 1.72917 69.554 1.55114C69.3684 1.37311 69.2756 1.15909 69.2756 0.909091C69.2756 0.659091 69.3684 0.445076 69.554 0.267045C69.7434 0.089015 69.9688 0 70.2301 0C70.4915 0 70.715 0.089015 70.9006 0.267045C71.09 0.445076 71.1847 0.659091 71.1847 0.909091C71.1847 1.15909 71.09 1.37311 70.9006 1.55114C70.715 1.72917 70.4915 1.81818 70.2301 1.81818ZM75.9134 12.2045C75.3603 12.2045 74.8585 12.1004 74.4077 11.892C73.9569 11.6799 73.599 11.375 73.3338 10.9773C73.0687 10.5758 72.9361 10.0909 72.9361 9.52273C72.9361 9.02273 73.0346 8.61742 73.2316 8.30682C73.4285 7.99242 73.6918 7.74621 74.0213 7.56818C74.3509 7.39015 74.7145 7.25758 75.1122 7.17045C75.5138 7.07955 75.9172 7.00758 76.3225 6.95455C76.8528 6.88636 77.2827 6.83523 77.6122 6.80114C77.9456 6.76326 78.188 6.70076 78.3395 6.61364C78.4948 6.52652 78.5725 6.375 78.5725 6.15909V6.11364C78.5725 5.55303 78.4191 5.11742 78.1122 4.80682C77.8092 4.49621 77.349 4.34091 76.7316 4.34091C76.0914 4.34091 75.5895 4.48106 75.2259 4.76136C74.8622 5.04167 74.6066 5.34091 74.4588 5.65909L73.1861 5.20455C73.4134 4.67424 73.7164 4.26136 74.0952 3.96591C74.4778 3.66667 74.8944 3.45833 75.3452 3.34091C75.7997 3.2197 76.2467 3.15909 76.6861 3.15909C76.9664 3.15909 77.2884 3.19318 77.652 3.26136C78.0194 3.32576 78.3736 3.46023 78.7145 3.66477C79.0592 3.86932 79.3452 4.17803 79.5725 4.59091C79.7997 5.00379 79.9134 5.55682 79.9134 6.25V12H78.5725V10.8182H78.5043C78.4134 11.0076 78.2619 11.2102 78.0497 11.4261C77.8376 11.642 77.5554 11.8258 77.2031 11.9773C76.8509 12.1288 76.421 12.2045 75.9134 12.2045ZM76.1179 11C76.6482 11 77.0952 10.8958 77.4588 10.6875C77.8263 10.4792 78.1028 10.2102 78.2884 9.88068C78.4778 9.55114 78.5725 9.20455 78.5725 8.84091V7.61364C78.5156 7.68182 78.3906 7.74432 78.1975 7.80114C78.0081 7.85417 77.7884 7.90151 77.5384 7.94318C77.2922 7.98106 77.0516 8.01515 76.8168 8.04545C76.5857 8.07197 76.3982 8.0947 76.2543 8.11364C75.9058 8.15909 75.58 8.23295 75.277 8.33523C74.9778 8.43371 74.7353 8.58333 74.5497 8.78409C74.3679 8.98106 74.277 9.25 74.277 9.59091C74.277 10.0568 74.4494 10.4091 74.7941 10.6477C75.1425 10.8826 75.5838 11 76.1179 11ZM83.7017 0.363636V12H82.3608V0.363636H83.7017Z" fill="#18191F"/>
</svg>
